<svg xmlns="http://www.w3.org/2000/svg" xmlns:xlink="http://www.w3.org/1999/xlink" version="1.1" id="Layer_1" x="0px" y="0px" width="100px" height="81.221px" viewBox="0 0 100 81.221" enable-background="new 0 0 100 81.221" xml:space="preserve">
<path d="M12.701,55.819C5.687,55.819,0,61.505,0,68.52c0,7.015,5.687,12.701,12.701,12.701s12.701-5.687,12.701-12.701  C25.403,61.505,19.716,55.819,12.701,55.819z M12.701,76.141c-4.202,0-7.621-3.419-7.621-7.621s3.419-7.621,7.621-7.621  s7.621,3.419,7.621,7.621S16.903,76.141,12.701,76.141z"/>
<path d="M48.265,55.819c-7.015,0-12.701,5.687-12.701,12.701c0,7.015,5.687,12.701,12.701,12.701s12.701-5.687,12.701-12.701  C60.967,61.505,55.28,55.819,48.265,55.819z M48.265,76.141c-4.202,0-7.621-3.419-7.621-7.621s3.419-7.621,7.621-7.621  s7.621,3.419,7.621,7.621S52.467,76.141,48.265,76.141z"/>
<path d="M83.829,55.819c-7.015,0-12.701,5.687-12.701,12.701c0,7.015,5.687,12.701,12.701,12.701  c7.015,0,12.701-5.687,12.701-12.701C96.53,61.505,90.844,55.819,83.829,55.819z M83.829,76.141c-4.202,0-7.621-3.419-7.621-7.621  s3.419-7.621,7.621-7.621s7.621,3.419,7.621,7.621S88.031,76.141,83.829,76.141z"/>
<path d="M39.074,28.157c-0.777-0.777-2.036-0.777-2.812,0l-5.779,5.779l-5.779-5.779c-0.777-0.777-2.036-0.777-2.812,0l-0.78,0.78  c-0.777,0.777-0.777,2.036,0,2.812l5.779,5.779l-5.779,5.779c-0.777,0.777-0.777,2.036,0,2.812l0.78,0.78  c0.777,0.777,2.036,0.777,2.812,0l5.779-5.779l5.779,5.779c0.777,0.777,2.036,0.777,2.812,0l0.78-0.78  c0.777-0.777,0.777-2.036,0-2.812l-5.779-5.779l5.779-5.779c0.777-0.777,0.777-2.036,0-2.812L39.074,28.157z"/>
<path d="M74.638,28.157c-0.777-0.777-2.036-0.777-2.812,0l-5.779,5.779l-5.779-5.779c-0.777-0.777-2.036-0.777-2.812,0l-0.78,0.78  c-0.777,0.777-0.777,2.036,0,2.812l5.779,5.779l-5.779,5.779c-0.777,0.777-0.777,2.036,0,2.812l0.78,0.78  c0.777,0.777,2.036,0.777,2.812,0l5.779-5.779l5.779,5.779c0.777,0.777,2.036,0.777,2.812,0l0.78-0.78  c0.777-0.777,0.777-2.036,0-2.812l-5.779-5.779l5.779-5.779c0.777-0.777,0.777-2.036,0-2.812L74.638,28.157z"/>
<path d="M98.445,27.111C95.402,17.477,85.947,11,70.525,7.859C57.779,5.262,42.171,5.418,38.171,5.501V0.587  c0-0.237-0.049-0.451-0.268-0.542c-0.219-0.091-0.425-0.041-0.592,0.127L29.835,7.67c-0.169,0.169-0.249,0.399-0.244,0.637  c0.005,0.238,0.113,0.464,0.289,0.626l7.395,6.776c0.188,0.173,0.369,0.218,0.602,0.115c0.234-0.103,0.293-0.334,0.293-0.59v-4.651  c4-0.071,19.115-0.237,31.34,2.253c13.478,2.745,21.598,8.063,24.042,15.804c3.237,10.251-0.245,18.613-2.031,21.921  c-0.472,0.875-0.216,1.956,0.58,2.543l-1.464-1.036l1.473,1.036c0.013,0.01,0.027,0.021,0.04,0.03l0.567,0.396l0.335,0.236  c0.464,0.327,1.047,0.438,1.6,0.309c0.553-0.13,1.024-0.489,1.295-0.988C98.124,49.08,102.26,39.194,98.445,27.111z"/>
</svg>